<svg xmlns="http://www.w3.org/2000/svg" width="94.792" height="22.1" viewBox="0 0 94.792 22.1">
  <path id="Path_6" data-name="Path 6" d="M-2159.928,24.34a2.674,2.674,0,0,1-1.105-.238,3.084,3.084,0,0,1-.918-.629,3.11,3.11,0,0,1-.629-.918,2.666,2.666,0,0,1-.238-1.105,2.664,2.664,0,0,1,.238-1.1,3.086,3.086,0,0,1,.629-.918,3.084,3.084,0,0,1,.918-.629,2.662,2.662,0,0,1,1.105-.238,2.664,2.664,0,0,1,1.105.238,3.087,3.087,0,0,1,.918.629,3.059,3.059,0,0,1,.629.918,2.667,2.667,0,0,1,.238,1.1,2.669,2.669,0,0,1-.238,1.105,3.082,3.082,0,0,1-.629.918,3.087,3.087,0,0,1-.918.629A2.676,2.676,0,0,1-2159.928,24.34Zm-62.424,0a10.753,10.753,0,0,1-4.284-.85,11.017,11.017,0,0,1-3.451-2.329,10.626,10.626,0,0,1-2.312-3.5c-.088-.213-.171-.434-.246-.659h6.733l.075.081a4.762,4.762,0,0,0,1.564,1.088,4.8,4.8,0,0,0,1.921.391,4.807,4.807,0,0,0,1.921-.391,4.77,4.77,0,0,0,1.563-1.088l.075-.081h6.733c-.078.232-.162.454-.246.659a10.642,10.642,0,0,1-2.311,3.5,10.984,10.984,0,0,1-3.469,2.329A10.784,10.784,0,0,1-2222.352,24.34Zm-21.658,0a8.616,8.616,0,0,1-3.163-.561,7.418,7.418,0,0,1-2.465-1.564,7.263,7.263,0,0,1-1.615-2.328,7.106,7.106,0,0,1-.578-2.857l5.95-.509a2.056,2.056,0,0,0,.544,1.462,1.76,1.76,0,0,0,1.326.578,1.76,1.76,0,0,0,1.326-.578,1.957,1.957,0,0,0,.5-.982h5.984a8.656,8.656,0,0,1-.552,2.767,7.048,7.048,0,0,1-1.581,2.465A6.862,6.862,0,0,1-2240.8,23.8,9.093,9.093,0,0,1-2244.01,24.34Zm78.063-.339h-5.44l-4.954-7h10.394v7Zm-13.26,0h-5.95V17h5.95v7Zm-9.928,0h-5.95V17h5.95v7Zm-13.26,0h-5.95V17h5.95v7Zm-22.888-15h-7.149l.026-.065.006-.014a10.644,10.644,0,0,1,2.312-3.5,11.025,11.025,0,0,1,3.451-2.329,10.767,10.767,0,0,1,4.284-.85,10.8,10.8,0,0,1,4.267.85,11,11,0,0,1,3.469,2.329,10.66,10.66,0,0,1,2.311,3.5l.032.078h-7.149a4.82,4.82,0,0,0-1.008-.589,4.793,4.793,0,0,0-1.921-.392,4.786,4.786,0,0,0-1.921.392,4.812,4.812,0,0,0-1.009.589Zm59.335,0h-5.95V2.58h5.95V9Zm-9.227,0h-9.983V2.58h5.44L-2175.174,9Zm-13.961,0h-5.95V2.58h5.95V9Zm-13.26,0h-5.95V2.58h5.95V9Zm-33.8,0h-5.95V2.58h5.95V9Z" transform="translate(2251.83 -2.24)"/>
</svg>
